<svg xmlns="http://www.w3.org/2000/svg" width="32" height="32" viewBox="0 0 8.467 8.467"><g transform="translate(-119.47 -77.096)"><path fill="#fff" stroke="#000" stroke-width=".215" d="M123.64 77.397c-.313.162-.792.377-1.095.49a6.845 6.845 0 0 1-1.065.299c-.075.015-.472.081-.832.14-.087.014-.165.03-.175.036l-.018.01v.125c0 .22.038 1.08.065 1.516.011.157.044.573.05.615.017.116.091.47.14.667.108.433.205.726.374 1.132.088.21.17.364.36.683.142.233.244.386.416.618.218.292.462.547.816.85.4.344.455.387.632.493l.17.106c.066.044.242.133.283.143.028.007.032.006.09-.019.114-.048.21-.097.272-.138.034-.022.114-.072.178-.11.154-.094.258-.176.608-.478.235-.203.262-.23.44-.418.234-.246.274-.295.482-.584.167-.233.261-.383.447-.704.154-.27.303-.613.443-1.027.106-.314.252-.945.292-1.258.043-.335.092-1.242.113-2.058.004-.153.003-.16-.007-.164a9.896 9.896 0 0 0-.504-.091c-.274-.045-.54-.093-.678-.123a6.81 6.81 0 0 1-1.176-.376c-.243-.101-.563-.249-.802-.37-.175-.088-.159-.088-.318-.005z"/><path fill="#bb0a21" stroke="#bb0a21" stroke-width=".104" d="m123.7 80.746-.703 1.218h1.406z" color="#000"/><circle cx="125.68" cy="80.127" r=".639" fill="#3aaed8" stroke="#3aaed8" stroke-width=".096" color="#000"/><g stroke="#fff" stroke-width=".092" aria-label="TRIO"><path d="M121.87 82.948h-.637v1.823h-.504v-1.823h-.634v-.41h1.775zM124.04 84.771h-.578l-.347-.575q-.039-.065-.075-.116-.036-.052-.073-.088-.036-.037-.076-.056-.04-.02-.086-.02h-.135v.855h-.503v-2.233h.797q.813 0 .813.607 0 .117-.036.217-.036.098-.101.177-.066.08-.159.137-.092.058-.206.09v.007q.05.015.097.051.047.035.09.081t.083.101q.04.053.073.105zm-1.37-1.856v.621h.218q.162 0 .26-.093.1-.095.1-.235 0-.293-.35-.293zM124.76 84.771h-.503v-2.233h.503zM126.21 84.81q-.48 0-.782-.311-.302-.313-.302-.815 0-.53.307-.856.307-.327.813-.327.478 0 .772.313.296.313.296.825 0 .526-.307.849-.305.322-.797.322zm.022-1.876q-.265 0-.42.199-.156.198-.156.525 0 .331.155.524t.408.194q.26 0 .413-.187.153-.189.153-.522 0-.347-.148-.54-.148-.193-.405-.193z"/></g><rect width="1.271" height="1.271" x="121.18" y="79.492" fill="#729e07" stroke="#729e07" stroke-width=".103" color="#000" rx=".127" ry=".127"/></g></svg>